<svg xmlns="http://www.w3.org/2000/svg" viewBox="0 0 200 200">
  <defs>
    <radialGradient id="brs-sheen" cx="40%" cy="35%" r="60%">
      <stop offset="0%" stop-color="#f44" stop-opacity="0.15"/>
      <stop offset="100%" stop-color="#200" stop-opacity="0"/>
    </radialGradient>
    <clipPath id="brs-vinyl">
      <path d="M100,4 a96,96 0 1,1 0,192 a96,96 0 1,1 0,-192 Z M100,72 a28,28 0 1,0 0,56 a28,28 0 1,0 0,-56 Z" fill-rule="evenodd"/>
    </clipPath>
  </defs>

  <!-- Base black -->
  <circle cx="100" cy="100" r="96" fill="#1a1a1a"/>

  <!-- Red splatter streaks -->
  <g clip-path="url(#brs-vinyl)" fill="#c0271e" opacity="0.9">
    <path d="M100,72 L96,28 L98,8 L102,12 L104,35 L102,72 Z"/>
    <path d="M106,73 L112,38 L114,18 L116,25 L113,45 L107,74 Z"/>
    <path d="M118,76 L148,30 L154,10 L153,22 L146,40 L120,78 Z"/>
    <path d="M124,82 L162,48 L170,32 L168,45 L158,58 L125,84 Z"/>
    <path d="M127,92 L178,68 L190,58 L186,66 L174,75 L128,94 Z"/>
    <path d="M128,100 L185,96 L198,94 L195,100 L182,100 L128,102 Z"/>
    <path d="M127,110 L180,125 L194,132 L188,134 L176,128 L128,112 Z"/>
    <path d="M124,118 L165,150 L176,168 L172,165 L160,148 L122,120 Z"/>
    <path d="M118,124 L148,168 L155,186 L150,184 L144,165 L116,126 Z"/>
    <path d="M108,127 L122,178 L126,196 L120,192 L118,174 L106,128 Z"/>
    <path d="M98,128 L94,180 L92,198 L90,192 L92,175 L96,128 Z"/>
    <path d="M88,126 L65,178 L58,196 L60,188 L68,170 L90,124 Z"/>
    <path d="M82,122 L48,162 L36,182 L40,176 L54,158 L84,120 Z"/>
    <path d="M76,114 L28,140 L12,152 L18,146 L35,135 L78,112 Z"/>
    <path d="M74,104 L20,110 L4,114 L8,108 L25,106 L74,102 Z"/>
    <path d="M74,94 L22,80 L6,72 L14,74 L28,82 L76,96 Z"/>
    <path d="M78,84 L35,52 L20,35 L28,40 L42,56 L80,86 Z"/>
    <path d="M84,78 L55,35 L45,15 L50,22 L60,42 L86,80 Z"/>
    <path d="M92,74 L78,30 L72,10 L76,18 L82,38 L94,76 Z"/>
    <!-- Thinner accent streaks -->
    <path d="M114,75 L132,24 L134,12 L136,20 L133,30 L115,77 Z" opacity="0.7"/>
    <path d="M128,98 L190,90 L198,88 L196,94 L186,94 L128,100 Z" opacity="0.6"/>
    <path d="M122,122 L158,170 L164,185 L160,182 L152,168 L120,124 Z" opacity="0.7"/>
    <path d="M86,124 L60,175 L52,196 L55,188 L64,170 L88,122 Z" opacity="0.6"/>
    <path d="M76,90 L25,70 L8,62 L15,64 L32,72 L78,92 Z" opacity="0.7"/>
    <path d="M96,73 L90,25 L88,6 L92,14 L93,32 L98,74 Z" opacity="0.6"/>
  </g>

  <!-- Grooves -->
  <g clip-path="url(#brs-vinyl)" opacity="0.35">
    <circle cx="100" cy="100" r="92" fill="none" stroke="#333" stroke-width="0.4"/>
    <circle cx="100" cy="100" r="87" fill="none" stroke="#2a2a2a" stroke-width="0.3"/>
    <circle cx="100" cy="100" r="82" fill="none" stroke="#333" stroke-width="0.4"/>
    <circle cx="100" cy="100" r="77" fill="none" stroke="#2a2a2a" stroke-width="0.3"/>
    <circle cx="100" cy="100" r="72" fill="none" stroke="#333" stroke-width="0.4"/>
    <circle cx="100" cy="100" r="67" fill="none" stroke="#2a2a2a" stroke-width="0.3"/>
    <circle cx="100" cy="100" r="62" fill="none" stroke="#333" stroke-width="0.4"/>
    <circle cx="100" cy="100" r="57" fill="none" stroke="#2a2a2a" stroke-width="0.3"/>
    <circle cx="100" cy="100" r="52" fill="none" stroke="#333" stroke-width="0.4"/>
    <circle cx="100" cy="100" r="47" fill="none" stroke="#2a2a2a" stroke-width="0.3"/>
  </g>

  <circle cx="100" cy="100" r="96" fill="url(#brs-sheen)"/>
  <circle cx="100" cy="100" r="28" fill="#111"/>
  <circle cx="100" cy="100" r="27" fill="none" stroke="#222" stroke-width="0.5"/>
  <circle cx="100" cy="100" r="3" fill="#333"/>
  <circle cx="100" cy="100" r="1.5" fill="#555"/>
</svg>
