<svg xmlns="http://www.w3.org/2000/svg" viewBox="0 0 200 200">
  <defs>
    <radialGradient id="bws-sheen" cx="40%" cy="35%" r="60%">
      <stop offset="0%" stop-color="#66f" stop-opacity="0.15"/>
      <stop offset="100%" stop-color="#004" stop-opacity="0"/>
    </radialGradient>
    <clipPath id="bws-vinyl">
      <path d="M100,4 a96,96 0 1,1 0,192 a96,96 0 1,1 0,-192 Z M100,72 a28,28 0 1,0 0,56 a28,28 0 1,0 0,-56 Z" fill-rule="evenodd"/>
    </clipPath>
  </defs>

  <!-- Base blue -->
  <circle cx="100" cy="100" r="96" fill="#1a3ab5"/>

  <!-- White splatter streaks -->
  <g clip-path="url(#bws-vinyl)" fill="#f0ece4" opacity="0.82">
    <path d="M99,72 L95,32 L97,10 L101,15 L103,38 L101,72 Z"/>
    <path d="M108,73 L116,35 L118,14 L120,24 L117,42 L109,74 Z"/>
    <path d="M120,78 L152,32 L158,14 L156,26 L148,44 L121,80 Z"/>
    <path d="M126,86 L168,55 L178,40 L175,50 L164,62 L127,88 Z"/>
    <path d="M128,96 L182,78 L196,72 L192,80 L178,84 L128,98 Z"/>
    <path d="M128,108 L184,120 L196,126 L190,128 L180,124 L128,110 Z"/>
    <path d="M125,116 L168,148 L178,164 L174,162 L164,146 L123,118 Z"/>
    <path d="M116,124 L145,170 L150,190 L146,186 L140,166 L114,126 Z"/>
    <path d="M106,128 L118,180 L120,196 L116,192 L114,176 L104,128 Z"/>
    <path d="M94,128 L86,178 L82,196 L80,190 L84,174 L92,128 Z"/>
    <path d="M84,124 L56,170 L46,190 L48,184 L60,165 L86,122 Z"/>
    <path d="M78,116 L35,148 L20,162 L25,156 L42,142 L80,114 Z"/>
    <path d="M74,104 L18,108 L4,110 L8,104 L24,104 L74,102 Z"/>
    <path d="M76,92 L28,72 L12,62 L18,64 L34,74 L78,94 Z"/>
    <path d="M80,82 L42,44 L30,28 L36,34 L48,50 L82,84 Z"/>
    <path d="M88,76 L68,32 L62,12 L66,20 L72,40 L90,78 Z"/>
    <!-- Thinner streaks -->
    <path d="M112,74 L128,26 L130,10 L132,18 L129,32 L113,76 Z" opacity="0.65"/>
    <path d="M128,104 L192,108 L198,110 L194,112 L188,110 L128,106 Z" opacity="0.6"/>
    <path d="M120,122 L155,172 L160,188 L156,184 L150,168 L118,124 Z" opacity="0.65"/>
    <path d="M88,126 L62,180 L56,196 L58,190 L66,174 L90,124 Z" opacity="0.6"/>
    <path d="M76,98 L20,92 L4,88 L10,90 L26,94 L78,100 Z" opacity="0.65"/>
  </g>

  <!-- Grooves -->
  <g clip-path="url(#bws-vinyl)" opacity="0.3">
    <circle cx="100" cy="100" r="92" fill="none" stroke="#0d2a8a" stroke-width="0.4"/>
    <circle cx="100" cy="100" r="87" fill="none" stroke="#1634a2" stroke-width="0.3"/>
    <circle cx="100" cy="100" r="82" fill="none" stroke="#0d2a8a" stroke-width="0.4"/>
    <circle cx="100" cy="100" r="77" fill="none" stroke="#1634a2" stroke-width="0.3"/>
    <circle cx="100" cy="100" r="72" fill="none" stroke="#0d2a8a" stroke-width="0.4"/>
    <circle cx="100" cy="100" r="67" fill="none" stroke="#1634a2" stroke-width="0.3"/>
    <circle cx="100" cy="100" r="62" fill="none" stroke="#0d2a8a" stroke-width="0.4"/>
    <circle cx="100" cy="100" r="57" fill="none" stroke="#1634a2" stroke-width="0.3"/>
    <circle cx="100" cy="100" r="52" fill="none" stroke="#0d2a8a" stroke-width="0.4"/>
    <circle cx="100" cy="100" r="47" fill="none" stroke="#1634a2" stroke-width="0.3"/>
  </g>

  <circle cx="100" cy="100" r="96" fill="url(#bws-sheen)"/>
  <circle cx="100" cy="100" r="28" fill="#111"/>
  <circle cx="100" cy="100" r="27" fill="none" stroke="#222" stroke-width="0.5"/>
  <circle cx="100" cy="100" r="3" fill="#333"/>
  <circle cx="100" cy="100" r="1.5" fill="#555"/>
</svg>
